<svg xmlns="http://www.w3.org/2000/svg" width="18" height="21.857" viewBox="0 0 18 21.857">
  <path id="Icon_Lock_close" data-name="Icon Lock close" d="M15.6,21.857H2.4A2.415,2.415,0,0,1,0,19.428V10.116A2.415,2.415,0,0,1,2.4,7.687H3.6V6.071C3.6,2.718,6.017,0,9,0s5.4,2.718,5.4,6.071V7.687h1.2A2.415,2.415,0,0,1,18,10.116v9.312A2.415,2.415,0,0,1,15.6,21.857ZM8.1,14.424v2.87a.9.9,0,1,0,1.8,0v-2.87a1.458,1.458,0,0,0-.54-2.8H8.64a1.458,1.458,0,0,0-.54,2.8Zm3.9-8.2c0-2.1-1.342-3.794-3-3.794s-3,1.7-3,3.794V7.687h6Z" fill="#3b55e6" fill-rule="evenodd"/>
</svg>
